<?xml version="1.0" standalone="no"?>
<!DOCTYPE svg PUBLIC "-//W3C//DTD SVG 20010904//EN"
 "http://www.w3.org/TR/2001/REC-SVG-20010904/DTD/svg10.dtd">
<svg version="1.0" xmlns="http://www.w3.org/2000/svg"
 width="460.000000pt" height="460.000000pt" viewBox="0 0 460.000000 460.000000"
 preserveAspectRatio="xMidYMid meet">
<metadata>
Created by potrace 1.14, written by Peter Selinger 2001-2017
</metadata>
<g transform="translate(0.000000,460.000000) scale(0.100000,-0.100000)"
fill="#000000" stroke="none">
<path d="M2242 4252 c-26 -27 -56 -55 -66 -63 -18 -13 -19 -13 -6 11 7 14 21
37 31 52 11 14 19 28 19 31 0 2 -20 1 -45 -4 -76 -14 -186 -70 -269 -137 -27
-21 -29 -22 -41 -5 -11 14 -17 15 -38 6 -37 -17 -94 -71 -130 -122 l-32 -46
-5 29 c-8 46 -23 40 -49 -19 -32 -75 -94 -169 -138 -207 -181 -162 -281 -290
-322 -413 -52 -159 -70 -435 -36 -580 22 -94 54 -273 56 -310 1 -22 3 -24 6
-10 3 11 29 43 58 70 29 28 81 84 115 125 35 41 66 76 70 78 4 1 10 -19 12
-45 18 -175 120 -334 244 -380 66 -24 212 -29 275 -8 102 34 177 102 213 195
28 71 47 198 40 262 l-6 57 39 10 c48 14 92 14 130 0 l31 -10 4 -117 c7 -161
33 -236 108 -313 45 -46 67 -60 122 -77 81 -27 175 -28 261 -5 134 36 222 143
263 323 27 120 23 118 79 48 28 -35 80 -92 116 -129 36 -36 70 -79 74 -95 7
-24 10 -13 16 56 4 52 19 117 36 167 21 57 25 79 16 76 -10 -4 -13 1 -9 18 31
141 33 236 7 404 -40 263 -102 364 -376 616 -26 24 -61 84 -141 242 l-22 42
-7 -30 c-4 -16 -8 -34 -9 -39 -1 -4 -21 16 -44 47 -44 56 -109 107 -138 107
-12 0 -15 -7 -12 -29 l4 -29 -48 42 c-51 45 -169 115 -227 134 -44 15 -98 15
-103 0 -3 -8 -11 -7 -28 5 -36 25 -48 22 -98 -31z m-105 -351 c28 -12 61 -34
74 -47 27 -29 42 -30 77 -4 51 38 171 72 272 77 78 4 110 1 180 -17 108 -29
248 -94 325 -152 58 -44 157 -145 201 -205 39 -52 95 -172 126 -265 28 -86 30
-107 35 -284 3 -105 2 -226 -2 -268 l-7 -79 -98 104 c-73 78 -94 106 -84 112
9 5 14 27 14 67 l0 59 -57 6 c-70 8 -215 33 -263 45 -68 18 -246 29 -325 21
-97 -10 -190 -50 -203 -89 -8 -24 -11 -24 -100 -26 -88 -1 -93 0 -98 21 -11
41 -101 83 -201 93 -80 8 -274 -1 -313 -16 -21 -7 -212 -41 -282 -49 l-58 -7
0 -59 c0 -40 4 -61 14 -66 11 -6 -9 -33 -83 -113 l-98 -104 -6 54 c-10 84 -8
387 3 456 14 87 63 230 103 301 123 217 289 349 547 435 73 24 97 28 170 25
60 -3 100 -10 137 -26z m-237 -871 c0 -5 -12 -10 -26 -10 -14 0 -23 4 -19 10
3 6 15 10 26 10 10 0 19 -4 19 -10z m70 0 c0 -5 -9 -10 -21 -10 -11 0 -17 5
-14 10 3 6 13 10 21 10 8 0 14 -4 14 -10z m685 0 c3 -6 -5 -10 -19 -10 -14 0
-28 5 -31 10 -3 6 5 10 19 10 14 0 28 -4 31 -10z m70 0 c3 -5 2 -10 -4 -10 -5
0 -13 5 -16 10 -3 6 -2 10 4 10 5 0 13 -4 16 -10z m-1115 -35 c-15 -19 -21
-19 -46 0 -18 13 -16 14 20 15 33 0 37 -2 26 -15z m520 0 c0 -8 5 -15 10 -15
6 0 10 -4 10 -10 0 -14 -11 -12 -34 5 -10 7 -15 18 -11 24 9 16 25 13 25 -4z
m860 1 c-6 -8 -18 -12 -26 -9 -19 7 -7 23 18 23 17 0 18 -3 8 -14z m-988 -11
c117 -25 108 -15 108 -108 0 -134 -26 -322 -51 -373 -27 -52 -49 -69 -131 -95
-82 -26 -186 -26 -238 1 -82 42 -138 187 -155 402 -9 118 -7 122 90 158 78 30
269 37 377 15z m783 0 c61 -8 135 -18 165 -21 30 -3 70 -10 88 -16 l33 -10 -3
-137 c-3 -113 -7 -144 -24 -181 -12 -25 -29 -69 -39 -98 -32 -99 -96 -136
-236 -137 -56 0 -82 4 -95 16 -11 9 -34 22 -53 29 -59 24 -92 62 -107 126 -18
75 -40 350 -31 386 7 27 36 38 142 51 17 2 35 5 40 5 6 1 60 -5 120 -13z
m-1375 -20 c0 -15 -26 -32 -36 -23 -2 3 -2 13 2 22 8 20 34 21 34 1z m1820
-17 c0 -30 -1 -31 -16 -16 -9 9 -14 24 -11 32 11 27 27 17 27 -16z m-1768 -20
c-9 -9 -12 -7 -12 12 0 19 3 21 12 12 9 -9 9 -15 0 -24z m1691 -1 c-3 -5 -10
-4 -15 1 -6 6 -7 16 -3 22 6 9 9 9 16 -1 4 -7 5 -17 2 -22z m-988 -62 c5 -35
-7 -77 -18 -65 -3 3 -7 33 -9 68 -3 51 -2 60 8 50 7 -7 16 -31 19 -53z m119
49 c10 -26 7 -42 -11 -48 -19 -8 -28 0 -37 31 -6 20 -1 25 35 32 4 0 10 -6 13
-15z m84 -11 c-5 -25 -28 -28 -28 -4 0 12 6 21 16 21 9 0 14 -7 12 -17z m-878
-16 c0 -13 -9 -32 -20 -42 -20 -18 -21 -18 -35 1 -8 10 -15 24 -15 30 0 17 23
34 47 34 17 0 23 -6 23 -23z m1630 4 c15 -29 11 -60 -13 -115 l-23 -49 -1 91
c0 71 2 92 13 92 7 0 18 -9 24 -19z m-1623 -92 c8 -8 8 -18 1 -35 -13 -28 -23
-30 -32 -8 -17 43 3 71 31 43z m1779 -46 c-12 -12 -41 12 -44 38 l-4 24 28
-27 c15 -15 25 -31 20 -35z m-822 9 c15 -28 33 -142 22 -142 -13 0 -44 78 -50
128 -7 58 3 63 28 14z m-1080 -20 c2 -4 -16 -30 -41 -57 -25 -28 -43 -42 -39
-32 3 10 6 24 6 31 0 35 59 81 74 58z m114 -74 c12 -64 -3 -84 -17 -22 -6 27
-14 60 -17 74 -6 23 -5 24 10 10 8 -9 20 -36 24 -62z m1856 23 c13 -15 16 -28
10 -57 l-7 -38 -28 32 c-24 27 -26 34 -16 56 14 31 19 32 41 7z m-2108 -50
c-9 -16 -16 -43 -16 -59 0 -16 -9 -37 -20 -47 -20 -18 -20 -17 -20 30 0 42 5
54 32 82 37 39 46 37 24 -6z m1250 -59 c-8 -8 -46 29 -46 44 0 7 11 2 26 -13
14 -14 23 -28 20 -31z m623 49 c12 -8 12 -16 -3 -56 -16 -40 -20 -44 -34 -33
-10 7 -18 13 -20 14 -2 1 2 20 9 43 12 41 22 48 48 32z m-954 -11 c8 -13 -3
-50 -15 -50 -12 0 -23 37 -15 50 3 5 10 10 15 10 5 0 12 -5 15 -10z m-45 -125
c0 -26 -29 -74 -51 -86 -32 -17 -46 4 -21 29 12 12 28 32 37 46 19 29 35 34
35 11z m-460 -104 c0 -23 -1 -24 -24 -15 -9 4 -16 18 -16 34 0 16 -4 32 -10
35 -5 3 -10 13 -10 21 0 9 12 1 30 -19 17 -19 30 -44 30 -56z m1389 70 c8 -14
7 -22 -3 -30 -16 -14 -26 -4 -26 26 0 28 15 30 29 4z m-441 -68 c-19 -24 -38
-15 -38 17 l0 31 24 -18 c17 -13 21 -21 14 -30z m399 31 c8 -20 -8 -36 -26
-25 -15 10 -8 41 9 41 6 0 13 -7 17 -16z m-327 -69 c0 -26 -7 -30 -28 -17 -16
10 -5 42 14 42 8 0 14 -10 14 -25z m40 -10 c0 -14 -4 -25 -10 -25 -5 0 -10 11
-10 25 0 14 5 25 10 25 6 0 10 -11 10 -25z"/>
<path d="M1702 3456 c-79 -26 -133 -56 -177 -100 -69 -70 -83 -157 -31 -192
30 -19 51 -10 111 46 49 46 94 64 215 84 52 9 109 26 127 37 30 19 34 26 31
57 -5 57 -41 77 -146 79 -53 2 -104 -3 -130 -11z"/>
<path d="M2690 3463 c-84 -32 -94 -103 -21 -142 10 -6 58 -17 108 -26 124 -21
168 -38 218 -84 58 -53 80 -64 105 -51 30 16 42 47 35 90 -20 119 -187 221
-359 219 -39 0 -78 -3 -86 -6z"/>
<path d="M1006 2335 c-18 -48 8 -134 33 -109 8 7 8 26 2 58 -10 54 -25 76 -35
51z"/>
<path d="M3571 2327 c-14 -35 -14 -107 -1 -107 25 0 41 88 20 120 -7 11 -11 9
-19 -13z"/>
<path d="M1192 2230 c-34 -144 -72 -287 -98 -368 -13 -41 -31 -129 -41 -198
-15 -108 -15 -137 -4 -226 32 -260 179 -453 473 -622 18 -11 38 -21 43 -22 6
-1 53 -18 106 -37 52 -19 153 -46 225 -58 114 -21 161 -23 404 -23 243 0 290
2 404 23 134 24 280 70 329 103 15 11 43 24 63 29 84 24 264 180 341 296 93
140 118 228 118 413 -1 108 -5 153 -24 225 -13 50 -23 103 -22 118 1 17 -3 26
-8 22 -6 -3 -13 7 -17 22 -3 15 -16 64 -29 108 -12 45 -30 121 -40 170 -10 50
-21 97 -26 105 -10 17 -11 -5 -13 -345 -2 -193 -5 -251 -19 -298 -39 -135
-103 -224 -176 -248 -54 -18 -153 -6 -208 26 -118 68 -165 145 -217 360 -41
164 -70 226 -118 251 -50 26 -91 35 -99 23 -10 -16 -91 -17 -97 -1 -2 8 -13 5
-35 -10 -43 -31 -137 -32 -187 -2 -32 19 -38 19 -70 6 -31 -12 -38 -12 -65 2
-22 12 -38 14 -61 7 -101 -29 -128 -71 -179 -276 -21 -82 -51 -175 -66 -205
-50 -100 -154 -177 -253 -187 -89 -9 -123 2 -180 60 -98 100 -132 246 -124
541 2 100 2 210 -1 246 l-6 65 -23 -95z m1322 -242 c39 -11 76 -34 76 -47 0
-10 -226 -41 -436 -61 -67 -6 -138 -15 -159 -21 -20 -6 -39 -8 -41 -6 -6 6 50
89 71 107 38 31 91 39 269 40 108 0 195 -5 220 -12z m144 -129 l3 -57 -44 -21
c-124 -60 -426 -86 -560 -49 -33 9 -60 18 -62 20 -1 2 -6 21 -9 44 l-7 41 58
12 c32 6 119 16 193 21 74 5 173 18 220 29 47 10 112 18 145 17 l60 -1 3 -56z
m-697 -266 c55 -92 140 -163 222 -185 43 -11 47 -15 47 -43 0 -41 -9 -51 -50
-60 -19 -4 -75 -20 -123 -37 -108 -37 -127 -33 -164 30 -25 42 -28 58 -32 159
-3 102 15 242 37 277 3 5 13 -16 22 -46 9 -30 28 -73 41 -95z m774 -98 c0
-158 0 -161 -28 -202 -15 -24 -37 -45 -50 -48 -13 -4 -56 5 -98 19 -41 14 -92
30 -115 35 -35 10 -42 16 -52 50 -16 53 -15 61 9 61 40 0 151 65 208 121 31
31 67 79 81 108 21 45 25 49 34 34 7 -11 11 -83 11 -178z m-178 94 c35 -6 63
-15 63 -19 0 -5 -26 -29 -57 -54 -119 -94 -294 -127 -410 -76 -29 12 -53 29
-53 37 0 32 93 95 167 112 55 13 216 13 290 0z"/>
</g>
</svg>
