<?xml version="1.0" standalone="no"?>
<!DOCTYPE svg PUBLIC "-//W3C//DTD SVG 20010904//EN"
 "http://www.w3.org/TR/2001/REC-SVG-20010904/DTD/svg10.dtd">
<svg version="1.0" xmlns="http://www.w3.org/2000/svg"
 width="128.000000pt" height="128.000000pt" viewBox="0 0 128.000000 128.000000"
 preserveAspectRatio="xMidYMid meet">
<metadata>
Created by potrace 1.11, written by Peter Selinger 2001-2013
</metadata>
<g transform="translate(0.000000,128.000000) scale(0.100000,-0.100000)"
fill="#000000" stroke="none">
<path d="M762 1139 c-55 -27 -99 -81 -117 -143 -20 -68 -19 -86 5 -86 86 0
189 116 190 213 0 44 -14 47 -78 16z"/>
<path d="M765 914 c-81 -25 -135 -27 -201 -10 -166 43 -266 0 -332 -142 -33
-72 -40 -191 -18 -287 38 -158 153 -333 236 -355 33 -9 50 -7 102 11 76 26
136 28 201 6 99 -35 155 -17 226 73 55 70 109 182 90 188 -8 3 -34 25 -59 51
-50 51 -70 101 -70 175 0 61 19 105 69 159 l40 44 -32 30 c-68 65 -159 86
-252 57z"/>
</g>
</svg>
